<?xml version="1.0" encoding="utf-8"?>
<svg xmlns="http://www.w3.org/2000/svg" xmlns:xlink="http://www.w3.org/1999/xlink" width="800" height="400" id="tracks-paper">

<defs>

  <g id="background">
    <rect width="100%" height="100%" fill="none" stroke="slategrey" stroke-opacity="1" stroke-width="5"/>
  </g>

  <marker id="Talon" markerWidth="3" markerHeight="1" refX="0" refY="0.5" orient="auto">
    <path stroke-width="0.1" style="fill:midnightblue; fill-opacity:0.6; stroke-opacity:0.3;              stroke:black; stroke-linejoin:miter" d="M 2.5 0.5 C 0 1.5 0 -0.5 2.5 0.5 z"/>
  </marker>

  <g id="leftclaw" stroke="black" fill="none" stroke-opacity="0.6" marker-end="url(#Talon)" stroke-dasharray="6 15" stroke-linecap="round">
    <path d="M 0 15 l 5 75" stroke-width="16"/>
    
    <path d="M 0 0 l 0 -75" stroke-width="16"/>
    
    <path d="M -12 5 l -40 -50" stroke-width="14"/>
    
    <path d="M 12 5 l 40 -50" stroke-width="14"/>
  </g>

  <g id="rightclaw" stroke="black" fill="none" stroke-opacity="0.6" marker-end="url(#Talon)" stroke-dasharray="6 15" stroke-linecap="round">
    <path d="M 0 15 l -5 75" stroke-width="16"/>
    
    <path d="M 0 0 l 0 -75" stroke-width="16"/>
    
    <path d="M -12 5 l -40 -50" stroke-width="14"/>
    
    <path d="M 12 5 l 40 -50" stroke-width="14"/>
  </g>
  <g id="dotrow" fill="black" stroke="none">
    <circle cx="50"  cy="25" r="1"/>
    <circle cx="100" cy="25" r="1"/>
    <circle cx="150" cy="25" r="1"/>
    <circle cx="200" cy="25" r="1"/>
    <circle cx="250" cy="25" r="1"/>
    <circle cx="300" cy="25" r="1"/>
    <circle cx="350" cy="25" r="1"/>
    <circle cx="400" cy="25" r="1"/>
    <circle cx="450" cy="25" r="1"/>
    <circle cx="500" cy="25" r="1"/>
    <circle cx="550" cy="25" r="1"/>
    <circle cx="600" cy="25" r="1"/>
    <circle cx="650" cy="25" r="1"/>
    <circle cx="700" cy="25" r="1"/>
    <circle cx="750" cy="25" r="1"/>
  </g>

</defs>
 
 
 
  <!--<use xlink:href="#leftclaw" transform="translate(700 320) scale(0.45)"/>
  
  <use xlink:href="#rightclaw" transform="translate(760 300) scale(0.45)  rotate(-18)"/>-->
  
 <rect width="100%" height="100%" fill="white" fill-opacity="0.7"/>
  
 <g stroke="black" stroke-width="1">
   
   <use xlink:href="#dotrow" x="0" y="50"/>
   <use xlink:href="#dotrow" x="0" y="100"/>
   <use xlink:href="#dotrow" x="0" y="150"/>
   <use xlink:href="#dotrow" x="0" y="200"/>
   <use xlink:href="#dotrow" x="0" y="250"/>
   <use xlink:href="#dotrow" x="0" y="300"/>
   <use xlink:href="#dotrow" x="0" y="350"/>
   
    <g stroke-dasharray="1 5">
      <path d="M 0 50 h 800"/>
      <path d="M 0 100 h 800"/>
      <path d="M 0 150 h 800"/>
      <path d="M 0 200 h 800"/>
      <path d="M 0 250 h 800"/>
      <path d="M 0 300 h 800"/>
      <path d="M 0 350 h 800"/>
    </g>
 </g>
</svg>