<?xml version="1.0" encoding="utf-8"?>
<svg xmlns="http://www.w3.org/2000/svg"
  xmlns:w="http://xmlns.xmlshoestring.com/wgll/2005"
  xmlns:xlink="http://www.w3.org/1999/xlink" width="800" height="600"
  id="testpage" viewBox="0 0 800 600">
  <defs>



    <marker id="Talon" markerWidth="3" markerHeight="1" refX="0" refY="0.5"
      orient="auto">
      <path stroke-width="0.1"
        style="fill:lightslategrey; fill-opacity:0.6; stroke-opacity:0.3;       stroke:black; stroke-linejoin:miter"
        d="M 2.5 0.5 C 0 1.5 0 -0.5 2.5 0.5 z"/>
    </marker>

    <g id="leftclaw" stroke="darkslategrey" fill="none" stroke-opacity="0.6"
      marker-end="url(#Talon)" stroke-dasharray="6 15" stroke-linecap="round">
      <path d="M 0 15 l 5 75" stroke-width="16"/>

      <path d="M 0 0 l 0 -75" stroke-width="16"/>

      <path d="M -12 5 l -40 -50" stroke-width="14"/>

      <path d="M 12 5 l 40 -50" stroke-width="14"/>
    </g>

    <g id="rightclaw" stroke="darkslategrey" fill="none" stroke-opacity="0.6"
      marker-end="url(#Talon)" stroke-dasharray="6 15" stroke-linecap="round">
      <path d="M 0 15 l -5 75" stroke-width="16"/>

      <path d="M 0 0 l 0 -75" stroke-width="16"/>

      <path d="M -12 5 l -40 -50" stroke-width="14"/>

      <path d="M 12 5 l 40 -50" stroke-width="14"/>
    </g>


  </defs>

  <rect width="100%" height="100%" fill="gainsboro" fill-opacity="1"/>
  
  

  <path fill="darkgrey" stroke-opacity="0.5" stroke="darkslateblue"
    stroke-width="12" fill-opacity="0.3"
    d="M 45 20 C 95 0 165 20 165 70 C 165 120 125 170 55 160 C 5 150 -5 40 45 20 Z"/>

  <path fill="darkgrey" stroke-opacity="0.5" stroke="darkslateblue"
    stroke-width="12" fill-opacity="0.3"
    d="M 30 205 C 80 155 150 175 250 275 C 350 375 210 515 130 475 C 50 435 -20 255 30 205 Z"/>

  <path fill="darkgrey" stroke-opacity="0.5" stroke="darkslateblue"
    stroke-width="12" fill-opacity="0.3"
    d="M 20 480 C 40 430 100 450 100 530 C 100 550 90 580 60 580 C 30 580 0 530 20 480 Z"/>

  <path fill="darkgrey" stroke-opacity="0.5" stroke="darkslateblue"
    stroke-width="12" fill-opacity="0.3"
    d="M 120 540 C 120 480 330 480 370 500 C 410 520 390 570 330 580 C 270 590 110 600 120 540 Z"/>

  <path fill="darkgrey" stroke-opacity="0.5" stroke="darkslateblue"
    stroke-width="12" fill-opacity="0.3"
    d="M 420 540 C 380 440 660 240 760 390 C 810 465 780 550 700 580 C 620 610 440 590 420 540 Z"/>

  <path fill="darkgrey" stroke-opacity="0.5" stroke="darkslateblue"
    stroke-width="12" fill-opacity="0.3"
    d="M 300 400 C 320 340 450 40 550 20 C 650 0 570 260 420 440 C 370 500 280 480 300 400 Z"/>

  <path fill="darkgrey" stroke-opacity="0.5" stroke="darkslateblue"
    stroke-width="12" fill-opacity="0.3"
    d="M 585 265 C 575 205 625 45 705 25 C 785 5 805 145 765 245 C 725 345 595 325 585 265 Z"/>

  <path fill="darkgrey" stroke-opacity="0.5" stroke="darkslateblue"
    stroke-width="12" fill-opacity="0.3"
    d="M 180 125 C 170 55 280 5 380 25 C 430 35 420 125 350 225 C 315 275 190 245 180 125 Z"/>

  <rect width="100%" height="100%" fill="gainsboro" fill-opacity="0.4"/>
  
  

<!--
  <g transform="translate(20 10)">
    <image xlink:href="tracks.svg" width="220.00" height="220.00"/>
  </g>

-->


</svg>
